<svg height="1598" width="720" xmlns="http://www.w3.org/2000/svg">
<rect height="1598" fill="#555" width="720"></rect>
<text fill="#7f7" font-family="Courier New" font-size="12" xml:space="preserve">
<tspan x="10" y="26">73 megabytes installed</tspan>
<tspan x="10" y="42"></tspan>
<tspan x="10" y="58">node_modules</tspan>
<tspan x="10" y="74">└─┬ wappalyzer@3.0.10 </tspan>
<tspan x="10" y="90">  └─┬ phantomjs-prebuilt@2.1.14 </tspan>
<tspan x="10" y="106">    ├── es6-promise@4.0.5 </tspan>
<tspan x="10" y="122">    ├─┬ extract-zip@1.5.0 </tspan>
<tspan x="10" y="138">    │ ├─┬ concat-stream@1.5.0 </tspan>
<tspan x="10" y="154">    │ │ ├── inherits@2.0.3 </tspan>
<tspan x="10" y="170">    │ │ ├─┬ readable-stream@2.0.6 </tspan>
<tspan x="10" y="186">    │ │ │ ├── core-util-is@1.0.2 </tspan>
<tspan x="10" y="202">    │ │ │ ├── isarray@1.0.0 </tspan>
<tspan x="10" y="218">    │ │ │ ├── process-nextick-args@1.0.7 </tspan>
<tspan x="10" y="234">    │ │ │ ├── string_decoder@0.10.31 </tspan>
<tspan x="10" y="250">    │ │ │ └── util-deprecate@1.0.2 </tspan>
<tspan x="10" y="266">    │ │ └── typedarray@0.0.6 </tspan>
<tspan x="10" y="282">    │ ├── debug@0.7.4 </tspan>
<tspan x="10" y="298">    │ ├─┬ mkdirp@0.5.0 </tspan>
<tspan x="10" y="314">    │ │ └── minimist@0.0.8 </tspan>
<tspan x="10" y="330">    │ └─┬ yauzl@2.4.1 </tspan>
<tspan x="10" y="346">    │   └─┬ fd-slicer@1.0.1 </tspan>
<tspan x="10" y="362">    │     └── pend@1.2.0 </tspan>
<tspan x="10" y="378">    ├─┬ fs-extra@1.0.0 </tspan>
<tspan x="10" y="394">    │ ├── graceful-fs@4.1.11 </tspan>
<tspan x="10" y="410">    │ ├── jsonfile@2.4.0 </tspan>
<tspan x="10" y="426">    │ └── klaw@1.3.1 </tspan>
<tspan x="10" y="442">    ├─┬ hasha@2.2.0 </tspan>
<tspan x="10" y="458">    │ ├── is-stream@1.1.0 </tspan>
<tspan x="10" y="474">    │ └─┬ pinkie-promise@2.0.1 </tspan>
<tspan x="10" y="490">    │   └── pinkie@2.0.4 </tspan>
<tspan x="10" y="506">    ├── kew@0.7.0 </tspan>
<tspan x="10" y="522">    ├── progress@1.1.8 </tspan>
<tspan x="10" y="538">    ├─┬ request@2.79.0 </tspan>
<tspan x="10" y="554">    │ ├── aws-sign2@0.6.0 </tspan>
<tspan x="10" y="570">    │ ├── aws4@1.6.0 </tspan>
<tspan x="10" y="586">    │ ├── caseless@0.11.0 </tspan>
<tspan x="10" y="602">    │ ├─┬ combined-stream@1.0.5 </tspan>
<tspan x="10" y="618">    │ │ └── delayed-stream@1.0.0 </tspan>
<tspan x="10" y="634">    │ ├── extend@3.0.0 </tspan>
<tspan x="10" y="650">    │ ├── forever-agent@0.6.1 </tspan>
<tspan x="10" y="666">    │ ├─┬ form-data@2.1.4 </tspan>
<tspan x="10" y="682">    │ │ └── asynckit@0.4.0 </tspan>
<tspan x="10" y="698">    │ ├─┬ har-validator@2.0.6 </tspan>
<tspan x="10" y="714">    │ │ ├─┬ chalk@1.1.3 </tspan>
<tspan x="10" y="730">    │ │ │ ├── ansi-styles@2.2.1 </tspan>
<tspan x="10" y="746">    │ │ │ ├── escape-string-regexp@1.0.5 </tspan>
<tspan x="10" y="762">    │ │ │ ├─┬ has-ansi@2.0.0 </tspan>
<tspan x="10" y="778">    │ │ │ │ └── ansi-regex@2.1.1 </tspan>
<tspan x="10" y="794">    │ │ │ ├── strip-ansi@3.0.1 </tspan>
<tspan x="10" y="810">    │ │ │ └── supports-color@2.0.0 </tspan>
<tspan x="10" y="826">    │ │ ├─┬ commander@2.9.0 </tspan>
<tspan x="10" y="842">    │ │ │ └── graceful-readlink@1.0.1 </tspan>
<tspan x="10" y="858">    │ │ └─┬ is-my-json-valid@2.16.0 </tspan>
<tspan x="10" y="874">    │ │   ├── generate-function@2.0.0 </tspan>
<tspan x="10" y="890">    │ │   ├─┬ generate-object-property@1.2.0 </tspan>
<tspan x="10" y="906">    │ │   │ └── is-property@1.0.2 </tspan>
<tspan x="10" y="922">    │ │   ├── jsonpointer@4.0.1 </tspan>
<tspan x="10" y="938">    │ │   └── xtend@4.0.1 </tspan>
<tspan x="10" y="954">    │ ├─┬ hawk@3.1.3 </tspan>
<tspan x="10" y="970">    │ │ ├── boom@2.10.1 </tspan>
<tspan x="10" y="986">    │ │ ├── cryptiles@2.0.5 </tspan>
<tspan x="10" y="1002">    │ │ ├── hoek@2.16.3 </tspan>
<tspan x="10" y="1018">    │ │ └── sntp@1.0.9 </tspan>
<tspan x="10" y="1034">    │ ├─┬ http-signature@1.1.1 </tspan>
<tspan x="10" y="1050">    │ │ ├── assert-plus@0.2.0 </tspan>
<tspan x="10" y="1066">    │ │ ├─┬ jsprim@1.4.0 </tspan>
<tspan x="10" y="1082">    │ │ │ ├── assert-plus@1.0.0 </tspan>
<tspan x="10" y="1098">    │ │ │ ├── extsprintf@1.0.2 </tspan>
<tspan x="10" y="1114">    │ │ │ ├── json-schema@0.2.3 </tspan>
<tspan x="10" y="1130">    │ │ │ └── verror@1.3.6 </tspan>
<tspan x="10" y="1146">    │ │ └─┬ sshpk@1.13.0 </tspan>
<tspan x="10" y="1162">    │ │   ├── asn1@0.2.3 </tspan>
<tspan x="10" y="1178">    │ │   ├── assert-plus@1.0.0 </tspan>
<tspan x="10" y="1194">    │ │   ├── bcrypt-pbkdf@1.0.1 </tspan>
<tspan x="10" y="1210">    │ │   ├─┬ dashdash@1.14.1 </tspan>
<tspan x="10" y="1226">    │ │   │ └── assert-plus@1.0.0 </tspan>
<tspan x="10" y="1242">    │ │   ├── ecc-jsbn@0.1.1 </tspan>
<tspan x="10" y="1258">    │ │   ├─┬ getpass@0.1.6 </tspan>
<tspan x="10" y="1274">    │ │   │ └── assert-plus@1.0.0 </tspan>
<tspan x="10" y="1290">    │ │   ├── jodid25519@1.0.2 </tspan>
<tspan x="10" y="1306">    │ │   ├── jsbn@0.1.1 </tspan>
<tspan x="10" y="1322">    │ │   └── tweetnacl@0.14.5 </tspan>
<tspan x="10" y="1338">    │ ├── is-typedarray@1.0.0 </tspan>
<tspan x="10" y="1354">    │ ├── isstream@0.1.2 </tspan>
<tspan x="10" y="1370">    │ ├── json-stringify-safe@5.0.1 </tspan>
<tspan x="10" y="1386">    │ ├─┬ mime-types@2.1.15 </tspan>
<tspan x="10" y="1402">    │ │ └── mime-db@1.27.0 </tspan>
<tspan x="10" y="1418">    │ ├── oauth-sign@0.8.2 </tspan>
<tspan x="10" y="1434">    │ ├── qs@6.3.2 </tspan>
<tspan x="10" y="1450">    │ ├── stringstream@0.0.5 </tspan>
<tspan x="10" y="1466">    │ ├─┬ tough-cookie@2.3.2 </tspan>
<tspan x="10" y="1482">    │ │ └── punycode@1.4.1 </tspan>
<tspan x="10" y="1498">    │ ├── tunnel-agent@0.4.3 </tspan>
<tspan x="10" y="1514">    │ └── uuid@3.0.1 </tspan>
<tspan x="10" y="1530">    ├─┬ request-progress@2.0.1 </tspan>
<tspan x="10" y="1546">    │ └── throttleit@1.0.0 </tspan>
<tspan x="10" y="1562">    └─┬ which@1.2.14 </tspan>
<tspan x="10" y="1578">      └── isexe@2.0.0</tspan>
</text>
</svg>
